<svg viewBox="0 0 100 101" fill="none" xmlns="http://www.w3.org/2000/svg">
<path fill-rule="evenodd" clip-rule="evenodd" d="M50 100.115C77.6142 100.115 100 77.7295 100 50.1152C100 22.501 77.6142 0.115234 50 0.115234C47.2559 0.115234 44.5634 0.336292 41.9394 0.761571L41.9393 0.76143C18.1577 4.61583 0 25.245 0 50.1151C0 50.1151 0 50.1152 0 50.1152C0 77.7295 22.3858 100.115 50 100.115ZM0 50.1151C0 77.7293 22.3858 100.115 50 100.115C52.7048 100.115 55.3594 99.9003 57.9478 99.4869L41.9375 76.6646L55.4332 60.7016L41.9375 39.8521L58.0665 21.2829L41.9394 0.761571C18.1578 4.61592 7.7375e-05 25.245 0 50.1151Z" fill="#D1AB6D"/>
</svg>
