<svg width="595" height="650" viewBox="0 0 595 650" fill="none" xmlns="http://www.w3.org/2000/svg">
<g filter="url(#filter0_f_815_1157)">
<path d="M748.149 232.57L747.349 228.46L749.839 223.85L754.449 222.79L757.799 222.62L761.649 223.62V221.04L757.509 219.18L758.999 217.62L760.979 215.42L764.329 215.62L766.989 213.01L765.759 212.28L763.109 209.62L760.109 208.03V204.15L758.879 203.09L757.129 207.7L754.999 206.27V202.56L758.859 198.98L758.329 196.53L754.619 194.2L756.909 191.92H760.289L765.229 189.43L766.689 185.43L773.189 182.95L778.329 180.66C778.77 181.141 779.019 181.767 779.029 182.42C779.029 183.48 775.679 184.74 775.679 184.74L774.419 189.51L777.419 188.09L780.079 185.43L783.429 186.49L782.559 193.39L785.559 190.54V187.19L784.499 181.52L785.259 179.07L786.849 174.62L790.569 172.81L795.869 170.53L799.059 172.81C798.234 173.924 797.346 174.989 796.399 176C795.249 177.2 797.599 178 797.599 178H801.479L803.969 175.15C803.969 175.15 806.789 178.17 807.319 178.7C807.849 179.23 806.779 174.62 806.779 174.62L811.559 172L814.939 173.79L818.659 173.62L821.999 170.19L825.559 165.76V160.62L829.999 154.11L833.679 150.44L837.029 146.36L842.869 145.5L847.739 145.23L850.129 147.62L855.069 152.49L859.519 150.54L862.699 147.98H866.149L864.459 146.29V143.81L867.809 140.46V134.62L869.399 131.62H872.049L874.369 129.32V125.81L878.779 122.62L879.869 118.38L878.109 116.59L878.799 114.46L876.319 110.95L878.319 107.4L880.179 105.54L883.529 108.89L880.979 111.48L883.629 114.13H887.709L890.529 113.07L894.409 111.28L897.959 110.42L898.849 107.57L897.789 104.75L895.789 104.38L889.789 101.73L885.349 102.46L884.289 99.97H880.769V97.97L881.629 94.62L884.819 93.02L885.179 89.31L887.999 87.72H890.459L889.399 84.72L890.459 81.54L893.459 77.12L894.849 71.98L900.249 66.78L906.249 60.78L908.999 58.06L914.339 55.76L918.149 53.57L921.669 50.02L925.309 46.41L929.719 44.62L932.899 40.02L938.899 38.23L942.079 34.88L945.999 33.12L948.459 31.67L951.309 34.49L955.359 33.26L959.009 36.01L961.399 33.62L965.619 31.34V29.22L961.379 30.11L956.379 29.75L953.199 28.89L954.259 25.7L957.639 23.38L954.789 22.69V21.09L956.789 21.26L957.149 18.08L958.909 15.62L961.399 13.16L965.639 11.57H966.869L970.049 7.16C970.049 7.16 973.069 6.23 974.129 5.16C974.259 5 974.359 5 974.429 5L974.459 5.04C974.969 5.11 974.159 8.22 974.159 8.22L976.449 10.15L978.209 11.94L976.279 15.94C976.279 15.94 978.939 15.94 979.999 14.88C981.059 13.82 979.999 17 979.999 17V20.72L975.819 23.37L978.999 23.9L980.999 21.98L985.099 23.62V21.69L988.379 24.94L990.669 28.49L992.669 27.96L994.599 25.51V27.8L995.859 30.62H992.139V32.19L995.139 33.09L993.549 37.67L989.549 38.03L985.839 42.03L983.839 46.27L980.129 47.53L977.469 46.47H974.119L971.119 50.88L972.449 53.54V58.05L969.529 60.96L967.239 59.21L964.919 60.96H961.569L959.619 59.37L957.859 58.31L957.589 60L958.919 61.33L957.329 62.03L956.269 63.09L959.349 63.62V65.99L961.739 68.37L965.649 67.31H968.309L968.469 70.7L970.059 69.1L972.819 71.82L975.729 74.74L977.129 79.88L977.859 83.96L974.999 88.54H972.359L968.649 90.13L967.419 92.95L970.419 91.72H972.339L969.519 95.1L971.279 96.86L973.599 95.97V92.62L975.749 90.96L979.529 90.86L981.759 88.67L982.819 86.88L985.469 87.07L987.589 86.71L991.469 86.51V88.97H994.659L995.549 87.34H998.639L1000.49 85.48L1002.82 85.12L1004.74 86.71L1007.59 84.59L1008.92 87.67L1011.47 90.23V93.94L1007.92 95.33L1005.63 100.27H1001.92L1000.86 101.87L1005 104.62L1003.72 106.01L1006.72 110.62L1007.94 116.25V122.62L1009 127.62L1010.77 131.77L1011.63 137.41L1013.42 142.91L1016.77 145.91V151.05L1018.53 158.11L1021.53 161.5L1023.53 163.42L1020.53 166.07L1017.35 164.48L1012.94 165.91L1010.62 171.21L1006.9 176.52L1008.9 178.52L1007.47 183.46V186.11L1010.47 190.72V193.35L1007.12 191.76L1004.63 189.27L1002.51 189.47L1004.51 194.58V197.96L1007.76 199.45L1004.51 202.74H1002.39V207.31L1000.39 209.31L1003.04 213.72L1005.16 215.84L1007.65 218.33L1011 221.68L1011.7 226.68L1012.23 230.56L1015.78 232.42H993.389L992.389 229.14L990.629 224.73L988.509 218.19L986.389 216.4L986.189 212.89L987.449 208.64V203.14L985.329 201.01L982.999 196.6H980.649L978.419 195.81L976.419 193.81L973.929 190.63L970.219 188.31V184.31L973.599 181.13L972.439 179.97L969.689 182.72L965.809 184.84V188.56L964.749 191.38L966.869 193.33L969.949 196.42L972.869 199.34H976.419L976.059 201.62L974.459 201.46L972.809 203.85L974.999 206.07V211.71L976.789 215.95L977.119 222.68L975.889 226.76L974.459 223.21L971.279 221.62V226.16L968.629 223.5L966.869 221.71L965.439 218.71L960.499 214.1L961.929 217.98L960.499 222.22H955.729V225.07L954.139 230.91L952.709 232.57M533.789 232.57L539.529 231.71L541.219 230.05L545.999 228.62L546.979 227.34L543.789 226.28L545.549 224.48L550.159 223.42L554.039 222.89L554.939 220.97L558.119 220.44L556.429 223.62V226.21L558.649 224.02L564.119 224.18L564.649 221.33L568.199 220.63L571.719 221.33L570.129 219.21L567.999 217.62L566.999 215.71H570.979L574.979 214.45H576.239L575.879 211.45L574.449 210.39V206.14L575.349 203.29L577.999 196.76L581.179 194.45L583.999 191.45L587.499 193.58L590.149 193.22L590.949 196.86L588.199 199.58L585.909 202.58L591.509 202.88L592.609 201.79H596.059L598.609 204.34L596.319 206.66C596.319 206.66 596.119 208.95 597.179 208.95C598.532 209.207 599.849 209.63 601.099 210.21L601.959 207.21L600.369 205.62L604.329 203.51H607.849L611.489 200.95L613.489 202.95L616.239 201.62L618.239 203.62L619.999 207.2L622.119 209.01L623.379 207.62L625.269 209.43L627.659 211.82L627.289 215.54L623.739 214.81L625.169 216.23L628.719 218.23L630.909 222.01L628.909 224.01V227.56L627.149 230.05L625.919 232.57M195.809 232.54L199.809 225.05L200.309 221.8L205.649 216.39H214.649L217.499 211.45V201.9L223.139 199.04L230.569 195.33V195.27L235.739 197.27H238.739L241.159 199.75L244.209 197.63L243.479 201.35L246.479 200.98L250.719 201.15V204L251.619 207.18L249.619 205.92L247.619 203.92L245.759 205.78L246.689 209.13V212.51L249.639 214.1L251.999 216.39V220.1L254.589 221.33V225.51L257.509 228.43L258.699 232.54M217.809 232.54L218.039 231.94M882.429 33.29L881.169 34.62L878.489 36.01L876.259 38.24L876.499 41.98L875.499 42.98L875.969 45.98L877.729 48.57L879.549 52.78L882.369 53.38L884.259 51.46L885.689 48.87L884.129 47.18L886.449 43.76L886.049 40.08V35.62L883.759 33.8L882.369 33.27L882.429 33.29ZM409.999 104.89L408.809 107.28L410.329 108.8L410.929 110.59L414.379 109.4L415.569 110.59L417.829 109.67L418.749 110.59V108.59L417.229 107.07H415.839L414.639 106.6H411.719L409.999 104.89ZM427.379 107.01V108.77H428.709L430.029 107.44L427.379 107.01ZM423.529 109.01L422.209 109.94L420.879 111.27V112.73L419.349 114.25L416.629 112.33L414.379 113.52V115.11L411.589 113.11L409.469 113.9L410.129 117.08L412.129 116.42V118.54L414.259 119.07L416.179 117.15L418.899 116.06L421.149 116.72H424.469L426.859 114.33L424.599 112.08L426.129 110.55L423.539 109.03L423.529 109.01ZM447.149 110.37V112.76L449.399 115.02V116.87L451.399 115.94L450.209 113.42L449.279 110.42H447.159L447.149 110.37ZM442.369 111.57L443.299 113.29L444.159 112.43L443.299 111.57H442.369ZM462.369 113.29L461.039 113.69L462.109 115.15V116.47H463.999V113.95L462.409 113.29H462.369ZM440.219 114.22L438.759 114.48V116.21H440.619L440.219 114.21V114.22ZM444.729 115.28V117.14L446.319 117.27V115.27L444.729 115.28ZM434.119 117.28L433.719 117.65L435.239 119.17L435.969 117.28H434.119ZM441.349 118.81V120.3H442.869L441.679 119.14L441.349 118.81ZM437.559 120.33L436.299 121.62L437.559 123.01L439.019 122.88L437.559 120.33ZM426.559 120.6L425.239 122.72L424.239 123.72L425.999 125.42L427.919 125.49V122.3L426.549 120.62L426.559 120.6ZM429.619 120.6L430.279 122.45H431.609V120.86L429.609 120.6H429.619ZM416.079 120.66L416.479 122.32L418.869 122.45L417.199 120.62H416.069L416.079 120.66ZM452.699 121.26L450.969 122.19L450.239 122.92L451.629 124.31L454.149 123.38V121.26H452.699ZM444.699 121.79L442.839 122.32L443.509 122.95L444.699 121.79ZM734.699 122.26L733.699 124.01L734.699 125.01L735.899 124.01L734.699 122.26ZM417.589 124.18L416.389 125.37L417.319 126.3L419.579 126.83L418.119 125.37L417.589 124.18ZM447.039 124.18L445.659 125.62L444.599 127.74V130.39L446.849 130.79L447.379 132.38L450.169 131.72L451.959 129.93L453.289 128.6L454.019 126.41H452.019L449.019 126.35L447.099 124.16L447.039 124.18ZM464.039 124.28L461.909 124.54L460.979 126L457.529 126.67L455.279 127.86L456.999 128.66L456.209 130.51L457.669 130.91H460.589L462.999 128.62L464.719 126.93L464.129 124.34L464.039 124.28ZM439.999 126.88L437.409 128.8L436.479 127.8H433.559V129.8L431.999 131.45L432.929 132.38L436.119 131.72L437.309 132.88L440.089 132.25L440.889 130.39L442.889 131.06L441.829 128.67L439.999 126.88ZM545.999 134.51L545.599 137.13L543.209 138.19L539.579 140.62V143.93L541.039 145.39L539.109 147.31L537.849 149.77L539.579 152.16L540.239 154.54L543.239 157.2L546.029 154.54H547.879L550.669 152.95L553.989 151.89L553.059 148.71V144.71L555.059 143.02L553.399 141.36L550.009 137.97L548.819 135.32L545.899 134.53L545.999 134.51ZM441.149 135.62L440.279 136.48V138.1H442.079L442.739 135.98L441.149 135.62ZM760.289 135.78L756.769 137.41L754.919 139.56L752.919 141.56H752.119L750.589 139.7L748.109 142.19L746.419 143.88L745.189 145.07L742.799 143.94L743.099 145.24L743.929 146.37L745.689 148.92L749.139 150.15L751.289 147.96H754.179L757.099 146.83L759.719 145.64L761.409 143.94V141.69L762.869 137.69L760.279 135.76L760.289 135.78ZM535.999 136.06L533.209 136.2L531.999 137.42L532.929 138.32L533.929 139.32L535.999 137.42V136.06ZM502.829 138.88L501.509 139.15L500.639 140.01L501.969 141.34L503.759 140.74L504.819 139.68L502.819 138.88H502.829ZM739.259 147.94L737.169 148.6H732.069L730.369 150.26L727.719 152.12L725.799 150.19L721.119 151.62L721.449 154.54L722.649 155.73L724.439 157.49L725.629 158.68L723.879 160.14L721.459 158.05L720.159 159.35L718.409 157.62L714.409 158.41L712.659 157.41L711.859 159.5L713.119 160.76L710.729 162.06V165.11L712.659 167L712.159 169.25H713.949L716.169 171.51L715.539 174.06L718.429 175.55L722.269 175.72L723.899 177.31H726.789L730.139 176.31V173.72L728.079 171.8L729.169 170.67L730.869 172.39L733.869 167.02L736.659 164.2L737.879 165.4L740.439 162.81L741.229 160.42L738.349 159.49L736.419 161.38L733.999 159.62L731.079 157.82L728.189 155.82L729.189 153.73L730.719 152.2L731.949 156.32L733.769 158.17L736.919 158.7L738.839 157.91H740.439L742.059 156.32L741.229 152.93H738.679L739.309 150.05V147.96L739.259 147.94ZM556.259 153.24L552.739 154.37C552.739 154.37 550.639 154.84 550.159 155L547.269 156L546.149 158.42L545.509 160.51L544.089 162.27L544.549 164.36L541.829 166.45L543.129 167.58L545.049 166.91L546.639 169.17L546.809 171.26L548.229 173.02L551.949 173.35L552.409 175.44L554.999 173.81L556.259 175.9L559.809 177.16L563.189 175.57L564.779 173.32L563.489 170.73L561.399 167.84L563.029 166.75L563.659 164.03L562.859 160.98L563.189 157.98L559.309 155.89L557.889 157.62L556.589 160.01L555.469 159.54L556.259 156.54V153.32V153.24ZM535.859 156.24L536.259 159.16V161.02L539.179 161.81L540.379 163.01L542.169 161.22L543.169 158.63L541.449 157.3L538.129 156.51L535.879 156.24H535.859ZM489.329 159.66L488.329 160.66L489.459 161.29L491.219 162.58L491.709 160.96L489.289 159.7L489.329 159.66ZM572.809 164.43L571.219 164.6L568.999 167.34L569.169 169.73L568.169 171.35L568.799 175.7L566.869 177.62L567.039 181.93L566.039 185.65L565.209 189.33L566.669 190.12L569.669 187.73L571.419 186.61L575.419 184.52L578.629 184.22L582.629 181.17L584.549 177.45L583.259 174.27L581.999 171.85L580.079 172.68L578.159 169.3L576.699 167.84L574.939 169.93L573.809 172.98V170.72L573.979 166.72L572.849 164.5L572.809 164.43ZM706.359 171.2L708.049 172.89L709.049 176.67H711.139V174.62L710.339 172.83L708.999 171.38L706.409 171.22L706.359 171.2ZM750.359 176.01L748.359 177.87L746.499 179.72L744.639 181.62L745.699 184.1L747.449 185.86L746.329 188.45L747.329 189.45L748.789 186.4L752.469 185.6L755.679 184.31L760.029 181.76L757.769 177.58H754.719L750.379 176.12L750.359 176.01ZM741.869 176.67L739.949 176.8L738.489 178.1L739.609 181.31L741.469 183.17L742.999 180.17V177.75L741.869 176.65V176.67ZM589.509 180.82L587.919 181.82L590.169 182.95L591.769 184.07L593.519 183.61L593.059 181.52L591.299 181.98L589.509 180.86V180.82ZM722.799 191.78L721.799 192.58L723.559 193.37L725.819 195.13L726.819 193.84L725.819 192.41L722.819 191.78H722.799ZM596.439 195.13L595.809 196.13L597.269 197.13L597.899 196.01L596.439 195.13ZM445.869 195.43L441.729 197.02L438.579 198.71L435.919 201.37H431.919L429.029 202.16L427.379 200.62H423.999L422.569 198.56L419.419 198.33L416.769 200.95H412.769L410.049 199.95L406.199 201.74H403.949L402.189 203.83L400.429 205.75L396.879 204.46V206.85H394.489L392.569 204.92L391.439 206.72L393.199 208.8L391.579 210.4L391.739 213.61L390.479 212.32L387.099 212.49L389.189 214.58L385.339 214.74V216.62H382.589L380.529 218.71L376.349 219.84L372.349 220.94V222.23L375.799 223.42L377.159 224.81L373.159 225.61L372.759 227.3L370.899 229.12L369.139 227.37H365.459V229.79L364.629 232.18L361.739 231.05L359.459 232.51H383.999L384.099 232.41L385.919 230.62L387.319 231.98V228.06L388.679 229.42H390.599L390.139 226.21L392.059 224.48V227.2L394.479 225.44L397.359 223.36V220.47L400.249 221.27L400.579 219.51H403.299L406.349 219.84L408.909 218.84L407.779 216.29L411.489 214.2H416.489L418.879 211.65H425.309L430.309 211.81L432.399 209.72L436.749 211.32L441.559 209.06L445.559 208.76L448.609 205.84L451.959 202.79V198.95L449.739 195.43H445.859H445.869ZM529.679 204.28L528.879 205.58L530.009 206.58L531.439 204.49L529.679 204.28ZM556.479 204.91L554.879 206.84L552.799 207.34L554.719 208.79L556.639 206.84L556.479 204.91ZM1015.67 208.76L1013.85 209.82V213.17L1013.52 216.22L1015.37 217.45L1016.6 219.01L1016.73 221.76L1019.19 222.69L1018.59 219.94L1017.5 217.78L1018.59 214.27V209.99L1015.67 208.76ZM1088.37 217.45L1086.37 217.92L1084.37 219.28L1085.43 220.37L1086.88 218.94L1088.35 217.48L1088.37 217.45ZM699.369 220.83C699.369 220.83 698.969 222.49 697.639 222.49C696.309 222.49 696.479 225.77 696.479 225.77L695.119 226.84L693.659 225.24L692.239 225.61L691.539 227.73L688.719 225.73L686.869 223.88L684.569 225.62L682.449 223.5L681.919 225.62L681.259 229.62L683.149 232.51H711.269V230.32L709.269 228.32H707.269L708.629 223.97L704.379 222.62L703.149 223.85L699.299 220.85L699.369 220.83ZM502.769 224.45L501.909 225.31L503.029 226.31L504.889 225.77L502.769 224.45ZM1079.07 225.74L1076.15 226.97L1073.4 225.91L1071.24 226.67L1072.3 228.96H1079.67L1081.95 226.67L1079.07 225.74ZM1026.54 227.33L1025.31 229.99L1023.62 231.64V232.54H1031.28L1031.15 231.91L1026.54 227.33ZM732.999 231.05V232.54H738.399L737.399 231.54L732.959 231.01L732.999 231.05ZM714.619 231.61L713.129 232.54H715.589L714.589 231.61H714.619Z" stroke="#CDDEDA" stroke-width="2" stroke-miterlimit="10"/>
<path d="M55.35 422.14L54.18 424.76L51.89 427.41L52.76 429.87L55.41 431.99L56.67 436.07L60.55 439.07L63.9 441.52L64.96 447.03L63.9 450.74L66.75 453.93L69.41 455.52L70.47 459.52L73.29 462.71V466.42L76.29 467.85L74.87 469.61L73.64 472.61L67.07 473.51L67.27 476.33L64.79 475.96L62.3 478.45L62.99 482.33L60.34 483.92L56.43 487.84L52.18 483.23L49.36 480.23L46.36 481.49L43 480.11L39.12 481.87L36.46 484.72L38.59 485.42L40.59 487.42L43.59 488.11L45.69 489.62L45 492.85L42 491.62L37.92 491.09L35.47 490.03L33.85 491.62L31.73 489.62L29.73 488.2L27.61 487.87L27 490.19L28.39 492.85L27.86 497.26L25.2 496.4H23L19 496.56L16 497.79L14.77 500.44L12.1 499.62L9.25 496.07L7.12 496.44L5.17 498.36L6.06 501.91L5 505.05L6.43 507.87L8.55 509.87L8.18 515.17L9.94 517.83L11.37 520.83L12.06 526.83L11.53 534.95L13 539.18L15.32 538.85L17 541.3L18.42 543.09L20.35 543.42L21.24 546.97L23.9 551.05L25.12 555.3L29.04 557.95L31.69 559.18L33.28 563.26L36.28 565.71L35.58 569.26L38.07 571.55L38.76 577.22L41.25 579.71L45.13 580.24L47.35 582.43L47.95 584.28L50.95 584.65L51.84 587.83L54.55 590.62L53.49 593.62L51.89 596.27L54.35 599.46L55.77 603.17V605.46L58.59 607.46L58.96 611.7L60.88 617.54L61.41 620.89L65.29 621.78L69.37 620.36L72.19 621.62L76.44 619.62L76.1 613.95L76.8 609.37L75.74 603.37V598.43L79.62 592.06L81.38 590.47V589.24L83.43 587.18L84.26 584.1L85.13 580.75L84.06 577.37L82.21 575.51V572.62L84 570.82L86.16 571.38L89.87 570.32H93.25L96.25 566.77L98.74 565.71V563.26L101.92 563.79L103.15 565.02L105.8 565.71C105.8 565.71 105.44 567.04 107.13 567.04C108.404 567.016 109.676 566.926 110.94 566.77H116.94L119.94 566.44L121.7 564.65L119.51 562.46L118 559.34L117.67 556.16L120.33 556.53L122.08 558.53L124 556.62V551.75L123 545.75L123.86 541.14L121.74 539.01L118.39 535.83L116.1 534.4L118.39 532.12L119.45 527.51L116.9 524.95L115.73 521.5L118.55 519.5L120.88 517.21L124.06 517.37L127.06 516.15V512.96L129.39 510.68L132.1 507.92H135.55L137.88 506.23L139.1 503.41H142.1L144 505.32L142.84 508.77V512.32L145.39 514.87L149.73 515.67L150.1 512.32L152.39 510L153.28 508.07H161L162.8 505.42H166.51L170.03 507.34L174.1 505.95L176.33 503.73L180.64 504.52L181.9 508.07V511.42H184.35L188.6 510.73L190.92 513.01L192.15 516.01L196.39 517.6L199.04 520.79L199.74 525.56L201.53 530.14L202.92 533.14L200.8 535.26V538.08H203.12L205.25 534.56L208.25 537.22L210.37 541.22L213.37 542.12L217.09 541.59L221.17 539.59L224.17 541.18L227.55 543.84L228.78 546.49L232.13 545.26H236.21L238.43 547.49V552L241.02 554.58L241.68 556.58L245.13 560.03H248.25L250.14 558.14H251.96L253.36 561.02L255.41 563.02L259.41 562.75H263.29L265.58 560.46L268 557.22L265.51 554.77L264.81 551.77L263.12 550.08L260.7 547.62L259.54 545.04L260.96 541.32L264.48 542.22L267.48 541.32L268.7 538.14L267.48 533.73L270.48 532.5L275.06 532.3L278.06 535.3H280.55L282.73 533.08L280.35 530.69L278.42 528.77L276.42 527.51L278.9 525.05L277.64 522.4L278.9 518.48H282.62L286.62 520.61L289.48 523.09L292.66 522.2L297.07 523.09L303.07 522.93L307.15 524.15H310.15L313.5 525.91L317.05 525.22L319.05 523.22H320.91L325.7 525.62H330.48L334.36 524.89L337.54 526.68L341.42 525.62H345.86L347.99 522.62L351.87 522.99L355.41 525.11H359.83L361.42 528.29H364.6L367.25 529.52L368.68 533.93L367.79 536.42V539.77L365.56 541.99L366.56 545.08L370.44 546.14L373.99 544.01L376.54 546.6L375.38 550.75L378.93 551.81L380.93 549.81L384.11 551.81H387.62V554.3L383.38 556.22L382.32 560.99H385.32L389.03 559.24L391.03 562.06L395.27 559.77L400.21 558.34L403.13 555.42L405.89 555.36L409.6 555.16L412.25 552.5H415.44L416.3 554.99L414.18 557.81H411.72V560.99L414.72 562.25L416.94 564.44L418.94 568.79L420.94 570.74L423.94 573.74L426.06 580.84V586.62L428.88 589.28V593.52L431.88 598.83L432.74 603.41L434 607.48L436.29 612.09L440.17 611.36L442.12 607.36L444.94 606.46L446.94 608.75V611.4L448.94 613.4L451.06 615.52L454.94 614.83L456.7 616.58L461.14 615.89L463.2 613.62H467.71L469.9 615.77L473.22 617.23L475.67 619.55L476.4 623.8L479.4 625.72L480.83 628.91L484.55 631.23V635.47L489.3 636.62L493.55 638.05L498.16 636.25L500.88 633.53L501.88 637.15L503.8 640.7L505.4 643.35L510.54 644.21L512.82 641.92L517.27 639.44L522.58 639.64L525.49 636.72L529.64 635.72L530.34 632.01H533.88L537.43 628.49L543.27 624.78H547.85L549.11 621.06H553L556.08 617.95L559.9 619.64L562.9 622.64L567.68 620.64L571.73 621.87L575.11 625.25L577.93 628.07L583.07 629.82L586.58 630.89L591.58 630.02L596.35 631.25H604.84L608.84 627.25L612.99 624.5V620.25L609.9 617.17V613.17L607.63 610.62L608.33 606.01L610.72 603.62L612.94 599.11L615.69 596.39L617.69 594.33L621.77 597.33H628.67L632.12 600.78L637.12 599.45H641.53L646.14 601.21L649.39 604.49L651.98 609.9L654.7 612.62L659.04 614.48L665.41 615.01L669.82 613.78L674.43 612.72L678.58 608.57H683.58L691.74 607.41L694.19 609L700.39 609.9H707.12L709.58 612.35L711.01 615.01L715.78 616.6L721.09 615.9H728.35L733.46 614.31H739.13L741.35 612.09L745.66 607.78L751.33 605.12L755.41 602.27L758.5 599.19L759.99 593.98L762.64 591.33L766.36 587.61L770.8 585.66L774.15 586.88L777.87 588.88L782.81 586.06L786.36 583.94L791.13 584.8L797.66 585.33L803.5 583.21L806.95 579.76L809.34 574.19L813.05 573.13V568.19L811.46 566.59L808.81 561.45L810.81 556.51V551.74L811.88 544.14L813.3 541.14L811.88 535.47L809.39 533.02L807.2 530.8L804.45 533.02L802.45 530.53L803.88 526.98L805.83 521.14L808.55 518.43L814.12 515.14L816.98 512.32L822.98 507.88H827.39L831.47 506.49L836.78 507.35L841.02 505.06H844.74L851.8 505.76L853.92 507.88L857.47 509.47L858.9 513.18L862.78 514.25L865.6 517.1L869.68 520.28L871.43 524.53L875.68 525.22C875.68 525.22 879.06 527.86 879.06 528.57C879.06 529.28 882.06 531.06 882.06 531.06L884.64 533.61L886.83 537.96L892.14 539.02L897.44 537.02L899.44 535.13H904.22L909.36 534.37L912.71 535.3L916.79 536.36L918.79 534.36L922.6 535.36L925 537.62L927.82 540.1V544.18L930.31 545.01L933.66 547.01H937L937.86 543.83L941.04 542.77L944.76 540.64L948.47 537.64L947.08 533.22L950.26 529.15L953.08 524.57L954.14 521.02L958.39 518.73H961.39L962.08 521.02L964.64 523.57L966.86 525.8V529.62L964.21 532.27L967.76 535.98L968.62 539.86L970.62 543.21L969.93 546.03L972.38 549.42L972.74 553.42L974.5 557.34L973.11 561.05L975.93 565.46L974.34 568.64L971.78 571.2L968.86 570.2L966.01 571.62L963.56 574.08V577.63L961.56 579.58L959.34 581.77L959.44 585.22L962.62 586.28L965.97 589.67L967.56 593.67L969.56 595.67L973.37 599.48L975.23 603.63V607.18L973.11 611.42L971.85 615.47L973.28 616.89L976.62 617.06V612.62L978.15 611.1L979.15 607.65L978.46 604.65L979.15 600.21V598.45L981.44 600.74L982.97 602.27V598.98L984.29 595.98L985.62 597.31V599.62L988.17 600.68L991.89 598.56L996.3 596.8H998.62L1001.27 591.86L1003.56 586.92L1007.11 581.08V577.02L1007.44 568.53L1006.38 562L1007.44 555.63V540.24L1008.5 536.69V529.96L1007.44 523.06L1006.38 517.96L1004.99 512.28L1002.99 507.14L1003.16 500.61L1001.23 494.24L1002.29 487.87V480.45L999.54 477.69L996.26 472.69L995.4 470.24L992.91 465.99L989.36 462.44L988.5 459.44L986.71 457.68L982.2 453.17L978.58 447.96L976.29 440.86L975.76 434.17L973.97 430.78L972.31 429.13L969.03 429.56L966.38 426.9L965.68 424.61H959.48L960.54 422.66L961.01 422.19M934 422.19L935.69 425.31L937.28 428.31L938.97 429.97L938.37 434.21L939.64 433.45L934.64 433.52L933.38 435.21V436.96L929.83 438.36V436.07L929.5 433.25L925.29 433.32L927.71 432.19L925.65 430.62V428.83L923.72 430.95V433.6L926.18 434.66V437.51L924.32 439.37L922.2 437.25L920.51 434.25L917.59 432.62L918.42 430.73L916.63 428.97L914.07 431.53L911.78 433.82H908.87L906.78 435.9H904.09L902.5 432.32L903.89 428.44V424L905.02 422.14M988.08 422.16L989.37 423.48L992.29 424.24L996.29 425.77L1000.11 429.15L1007.73 433.38L1008.66 434.96L1013.11 437.25L1016.95 439.57L1019.38 441.57L1023.69 443.19L1023.06 445.19L1021.53 446.72L1018.61 447.62H1016.33L1016.96 450.83L1016.33 453.12V455.18L1018.95 459.18C1019.5 459.818 1020.02 460.485 1020.5 461.18C1020.61 461.328 1020.71 461.485 1020.8 461.65C1020.88 461.784 1020.93 461.929 1020.97 462.08C1020.99 462.116 1020.99 462.155 1020.99 462.195C1020.99 462.234 1020.99 462.274 1020.97 462.31C1020.9 462.397 1020.85 462.5 1020.83 462.61V462.68C1020.76 463.395 1020.76 464.115 1020.83 464.83C1020.92 465.96 1021.06 467.06 1021.06 467.06L1023.06 469.06L1026.14 472.11L1028.73 473.8H1032.73L1035.02 476.09H1037.64L1039 478.97L1042.38 479.14L1044.44 477.08L1048.02 479.14L1050.17 481.89C1050.17 481.89 1050.77 483.3 1050.41 483.65C1050.38 483.683 1050.34 483.709 1050.3 483.726C1050.26 483.744 1050.21 483.752 1050.17 483.75C1050.02 483.73 1049.88 483.696 1049.74 483.65C1048.96 483.392 1048.2 483.091 1047.46 482.75C1046.31 482.25 1045.31 481.75 1045.31 481.75L1043.55 483.5H1039.67L1038.44 486.62L1039.2 489.62L1041.63 491.9L1043.45 495.9L1041 497.9L1039 495.48L1036.41 492.9L1031.8 488.62V485.73L1028.8 482.68L1025.88 479.76L1023.88 477.17L1021.43 472.43L1018.37 469.51L1015.16 467.69L1012.11 466.76L1009.52 461.25L1003.85 453.46L999.24 448.85L995.42 445.04L992.04 440.43L989.92 436.91L984.12 434.32L979.51 432.32L976.75 432.02L973.07 426.95V424.66L970.55 422.14L970.47 422.16M916.76 422.14V423.62L919.38 422.53L920.74 423.92L922.26 422.39L922.33 422.13L916.76 422.14ZM1103.24 430.43L1101.24 432.49L1100.6 435.11L1101.67 437.56L1100.9 441.56L1102.9 441.99L1104 439.57L1103.37 436.19L1103.83 433.27L1103.3 430.45L1103.24 430.43ZM1099 450.86L1098.24 451.63L1098.83 454.25L1100.06 452.39L1099 450.86ZM1094.72 458.52L1093.96 462.52L1094.96 463.52L1094.09 466.52L1094.43 471.1L1096.25 471.86L1096.85 469.41L1095.95 464.53L1097.61 462.84L1097.31 459.33L1094.72 458.56V458.52ZM1093.2 481.14L1090.11 481.61L1090.74 484.79L1091.04 487.88L1092.27 488.37V485.92L1093.2 483.92V481.13V481.14ZM1100.69 483.46V484.82L1102.69 485.92V483.62L1100.69 483.45V483.46Z" stroke="#CDDEDA" stroke-width="2" stroke-linejoin="bevel"/>
<path d="M203.888 218.08L200.208 221.79L199.738 225.04L193.208 237.25L190.208 235.86L183.998 240.8L181.148 240.96V246.96L177.998 248.23V252.84L173.748 256.19H168.798L167.568 267.86V272.47L160.138 275.12L120.508 275.29L122.798 277.94L126.708 279.53L125.818 280.43L122.998 281.13V287.13L126.178 289.98L126.508 295.09L124.388 297.21L122.998 293.7L121.568 290.51L117.688 289.28L115.208 286.62L112.208 285.2L110.618 286.79L109.918 289.44L105.138 288.38L101.588 290.5L97.5883 290.34L94.5883 294.34L90.8783 295.77L90.7083 298.42L88.7883 300.71L84.3783 300.91L82.5883 303.03V306.75L78.3383 309.4L75.5183 310.09L76.4183 313.28L74.4183 316.83L70.9983 320.23L70.4683 322.71L72.0583 326.23L74.5183 328.72L73.6483 331.54L72.5883 334.19L75.9383 335.08L78.9383 337.9V343.9L75.5583 346.75L74.2983 349.4L70.7483 350.46L69.3583 354.34L67.3583 358.95L66.2983 363.2L66.4583 366.2L64.7083 367.46L67.3583 370.12L66.2983 374L65.3983 377.55L62.1383 378.62L58.5883 377.36L57.5283 374.7L55.6083 372.58L52.9583 372.78L52.0583 375.96L49.7683 378.62L46.3883 381.97L44.7983 384.78L46.3883 387.44L48.2483 389.3L50.6283 387.3L52.2283 389.62L54.2283 391.75L56.8883 392.08L58.8883 394.03L60.2883 397.58L59.9583 400.4L58.6883 405.18L56.9983 406.55H54.8783L53.8183 409.21L52.0583 410.62L54.0583 413.62L55.9783 417.13V420.85L54.2183 424.76L51.9383 427.41L52.7983 429.87L54.4183 431.16M902.928 431.16L903.928 428.44V424L906.578 419.59V414.62L908.178 408.62V399.62L906.418 397.7V391.7L907.478 387.29V376.08L909.598 372.53L907.108 370.07L905.518 365.99L906.418 360.32L909.068 357.67L906.248 352.03L906.778 346.19L909.778 340.19L912.778 337.19L915.588 332.42L918.178 329.83L922.178 325.83H926.178L929.178 323.91L928.108 322.85L926.688 320.53L928.808 318.6H930.998L933.488 316.28L936.238 313.56L934.998 309.75L938.718 311.17L940.998 308.69L939.078 306.76L938.188 303.38L939.078 300.73L941.368 298.44L944.188 297.71L946.678 294.71L951.618 292.39V290.8L954.998 290.27L958.178 289.04L959.508 290.37L956.588 291.37L955.858 293.69V295.98C955.858 295.98 958.248 296.78 957.448 297.57C956.648 298.36 960.838 297.41 960.838 297.41L962.058 294.02V290.31L965.408 288.92L965.938 286.26L964.718 280.06L970.018 279.2V274.43L972.838 273.53L973.038 270.18H970.388L968.858 271.67L966.858 273.53L964.568 273.89L962.078 271.41V268.22L959.168 265.31L958.168 258.31V253L954.988 248.06L955.518 243.12L952.338 241L952.138 233.2L954.138 230.91L955.738 225.08V222.22H960.508L961.898 218.11M758.558 218.11L757.558 219.17L761.698 221.03V223.62L757.798 222.62L754.448 222.79L749.838 223.85L747.348 228.46L748.248 233H743.838L739.928 234.06L737.468 231.62L733.028 231.09V234.27L735.348 236.56V239.05L736.408 241.7L738.168 247.54L737.798 250.89L733.798 248.77L732.198 250.36L728.488 249.7L725.838 247.87L722.388 244.42L718.738 244.52V241.62C718.738 241.62 717.148 239.15 717.148 240.03C717.148 240.91 715.228 241.79 715.228 241.79L712.738 239.3L714.158 237.91L716.448 237.25V233.3L714.648 231.62L711.268 233.74V230.36L709.268 228.36H707.268L708.628 224.02L704.378 222.62L703.148 223.84L699.268 220.84C699.268 220.84 698.898 222.5 697.578 222.5C696.258 222.5 696.418 225.78 696.418 225.78L695.018 226.84L693.598 225.25L692.168 225.61L691.478 227.74L688.658 225.74L686.798 223.88L684.578 225.62L682.448 223.5L681.918 225.62L681.228 229.67L683.878 233.75L684.408 237.3C684.408 237.3 685.288 240.48 684.408 240.48C683.528 240.48 679.638 241.18 679.638 241.18L675.918 244.36L672.208 245.79L670.078 242.4L669.548 244.4L669.348 245.83H663.918L660.998 242.86L662.188 241.6L660.868 239.6L655.558 241.19L648.858 242.41L644.418 244.74L641.168 247.99L639.468 249.68L641.958 251.97H639.468L637.348 248.97V245.45L635.488 243.6L633.268 246.62L632.578 248.74L628.998 247.34L625.998 246.64H623.878L621.228 246.81L621.388 249.66L621.228 251.08L623.348 251.25L624.678 252.58L622.978 255.86L620.168 256.92L617.168 259.37C617.168 259.37 616.638 262.56 615.038 262.56C613.54 262.69 612.06 262.989 610.628 263.45L607.448 265.45L608.148 268.97L604.998 270.35L605.898 267.17L606.588 262.56L609.508 259.64L610.838 255.64L615.078 254.58L616.148 249.11L618.798 246.45L619.858 241.45V239.69L623.408 235.45L625.408 233.45L627.098 230.01L628.858 227.52V223.97L630.858 221.97L628.668 218.19L628.508 218.09M568.668 218.09L570.158 219.21L571.748 221.34L568.238 220.64L564.688 221.34L564.158 224.19L558.678 224.02L556.458 226.21V223.62L558.148 220.43L554.968 220.96L554.068 222.89L550.188 223.42L545.578 224.48L543.828 226.27L547.008 227.33L545.998 228.62L541.218 230.05L539.528 231.7L532.898 232.7L530.998 234.54L526.128 236.39L524.198 240.44L519.198 240.27L519.398 242.93L521.848 243.09L519.398 245.09L517.608 247.58L519.128 249.07L518.128 251.29L519.548 252.88L517.428 253.41C517.428 253.41 517.428 250.76 516.098 252.09L514.098 254.09L515.858 255.85L517.978 256.58L519.738 259.23L517.998 260.97H514.648L509.998 262.92H503.098V263.99L498.858 262.39H490.528L487.048 265.62L487.908 270.03L489.338 271.45L487.748 274.97L486.678 279.22L488.108 280.64L490.558 284.72L493.938 285.95L493.748 288.43L495.748 291.09L495.058 293.91H490.278L487.158 290.82L485.998 289.62L487.218 286.07L482.598 283.62L480.218 281.23L477.298 281.66L473.778 280.97L471.718 282.97L471.988 285.02L472.718 287.31L470.598 289.31L467.748 286.46L465.998 284.68L462.278 287.13L463.508 291.05L466.158 293.7V295.13L469.348 296.72L471.348 298.72L472.478 301.47V303.62L469.478 300.77L466.718 298.05L463.998 299.7L461.878 297.95L458.158 295.09V287.5L461.348 284.32L462.078 279.71V274.62L462.938 270.9H460.118L458.888 273.56L460.118 276.56L458.688 280.28L456.598 283.62H452.888L448.478 288.03L445.658 290.88L448.208 293.44L447.778 297.05L448.838 300.43L450.068 304.31L446.518 307.86L444.928 312.44L442.468 316.35L442.998 321.99L440.878 324.11L441.408 327.5H444.598L445.998 329.42L448.648 328.19L450.708 326.13L453.158 328.62L457.508 330.11L458.928 331.54L461.218 333.66L462.978 337.21L461.748 340.03L462.808 343.38L461.748 345.7L458.928 346.56L459.258 349.75V351.87L460.788 353.4L464.788 354.52V357.01L460.708 356.08L457.158 352.56V349.91L456.998 345.67L459.818 342.85L457.688 337.34L455.998 335.72L454.838 332.27L450.758 332.8H447.048L444.658 335.19L442.268 337.62L442.638 340.97L443.538 344.69L442.468 348.93L440.248 351.15L437.498 353.87L435.908 355.47V359.18L432.388 361.18L427.998 362.31L426.938 363.38H424.598C424.598 363.38 422.028 364.52 422.738 365.23C423.448 365.94 422.108 368.35 422.108 368.35H418.928L416.798 365.35L413.798 365.52L410.248 363.06L407.598 361.77L404.938 357.77V354.42L407.598 355.31L409.448 357.17L412.368 359.03L415.028 357.27L419.438 358.13L421.918 356.74L424.578 352.82L429.188 348.25L433.068 347.19L433.758 340.62L437.678 337.62L438.208 334.77L435.108 331.62L433.778 326.94L435.208 323.56L437.208 316.86L438.428 309.23L441.978 303.93L442.848 299.15L443.908 293.15L440.908 290.49L442.298 285.88L447.298 280.88L448.098 274.45L449.898 272.62L448.308 266.62H444.598L442.468 264.49H438.228L436.108 261.49L432.718 263.29L430.798 267.53L428.998 271.78L426.708 276.88L423.708 279.88L422.388 281.21L418.608 283.07L415.058 284.29L413.058 286.78L411.828 290.3L414.118 291.03V293.68L412.528 295.8L411.668 300.05V302.87L408.118 304.66L406.428 306.31L408.288 310.13L411.668 312.42L410.938 317.42L412.888 322L415.708 322.89L411.708 326.61V330.32L408.158 332.44L405.668 328.53V325.02L402.668 320.94L399.808 316.53L395.668 312.35L393.448 307.84L390.098 304.49L385.998 300.33L382.348 295.82L380.958 297.21L377.678 293.96L374.928 294.76L371.738 296.35L372.268 301.46L371.578 305.7L368.228 306.23V309.09L364.678 308.19L363.188 309.68L362.918 312.97L359.538 310.15V307.15L362.388 305.15L362.918 302.7L360.998 300.86L356.288 302.35H352.598L350.738 304.21L345.268 298.74L340.268 297.74L334.958 300.06H332.098L327.998 296.35L330.658 295.45L331.718 292.27H335.068L333.858 287.62H330.858L325.228 289.41V292.62H323.428L321.508 289.08H317.598L310.898 288.18L307.178 288.91L300.268 287.62L300.958 290.47L296.548 288.35L291.938 289.41V292.62L287.528 294.75L283.618 292.96L279.568 291.89V288.38L278.148 284.13V279.52L283.818 277.52L287.528 278.41L290.178 281.07L291.778 279.47L292.838 276.29V270.09L289.838 265.51L285.838 261.51L284.838 259.29H281.838L282.538 263.53V267.95L278.128 270.6V273.45L273.518 275.74L272.118 278.74V283.15L268.568 288.29L264.328 289.15L261.248 292.27L258.998 295.09V291.21L261.488 288.72L258.488 284.11L256.488 282.11H253.208L248.428 283.62L244.188 281.33L239.048 283.25L233.568 282.39L233.408 288.59L230.408 291.08L231.638 294.08L230.138 295.54L225.138 294.08L223.188 290L219.998 286.89L218.998 281.65L217.938 273.65H214.938L211.938 276.84V279.84L211.608 283.72L213.898 286.04L212.998 290.45L208.588 293.63L204.708 289.75L201.058 286.1L203.648 281.59L202.058 277.02L200.998 273.36L204.248 270.08L205.578 263.81L209.018 260.36L213.368 259.04L215.858 253.53L216.548 249.65L213.998 247.06L215.918 245.14L215.848 240.63L215.118 236.72L216.808 235.06L217.978 231.94L220.428 234.43L218.428 236.43L217.628 240.43L220.088 241.49L221.308 248.06L223.598 251.94L224.888 255.49L226.488 259.2L229.838 262.55V267.33L233.118 270.61L238.328 273.53L243.098 275.29L248.538 274.23H253.538L258.208 269.55L261.298 264.14L262.058 257.78L262.228 253.9L259.138 250.78L259.038 245.41L257.998 242.92L258.898 238.51V233.37L257.468 228.43L254.548 225.51V221.33L251.998 220.1V218.1M976.058 431.14L973.058 426.93V424.64L969.058 420.64L966.938 416.64L962.628 415.28L963.718 412.2V409.91L967.238 410.97L967.828 407.92L965.778 405.86V404.7L963.778 402.7L960.828 401.7L959.608 402L958.708 399.41V397.12L958.618 397.13L962.568 398.23L964.568 399.13L965.658 401.58L967.778 403.74L971.628 404.5L972.528 406.95L976.838 409.7H979.128L980.948 412.29L982.478 416.44L984.858 418.79L989.368 423.47L992.288 424.23L996.288 425.76L1000.11 429.14L1003.75 431.14M938.848 431.18L939.008 429.95L937.318 428.29L935.728 425.29L933.808 421.74L936.988 419.98L938.908 417.98L942.828 417.12L947.398 417.11L951.218 417.54L952.908 419.23C952.908 419.23 956.968 418.5 957.848 418.5C959.003 418.28 960.127 417.924 961.198 417.44L963.418 419.66L961.728 421.36L960.498 422.58L959.438 424.58H965.638L966.338 426.87L968.988 429.52L972.278 429.09L973.928 430.75L974.168 431.18M381.178 218.08L380.518 218.74L376.338 219.84L372.338 220.97V222.23L375.788 223.45L377.148 224.85L373.148 225.64L372.748 227.33L370.888 229.13L369.128 227.4H365.448V229.82L364.618 232.21L361.738 231.08L359.178 232.71L361.108 234.8L358.218 237.85L354.508 238.94L354.038 241.03L352.898 240.62L351.898 239.49L348.848 239.16L346.328 242.62L345.668 246.13L347.588 248.89L350.008 249.02L351.138 251.94L352.258 252.24L352.098 256.08L353.858 257.54L352.858 259.13L350.308 259.96L349.308 262.85L351.858 265.57L355.248 268.78L356.368 268.12L358.298 271.04H360.048L362.608 272.47V274.62L365.358 273.33L366.358 272.33L365.528 269.44L363.768 266.72L365.068 262.55L363.608 258.37L364.738 255.48V251.48L366.998 249.22L367.998 246.01L370.718 244.91V241.86L373.468 239.61H376.818L378.908 236.06L380.538 233.97H382.598L384.118 232.44L385.938 230.65L387.338 232.01V228.1L388.698 229.46H390.618L390.158 226.24L392.078 224.52V227.24L394.498 225.48L397.388 223.39V220.51L400.268 221.3L400.598 219.54H403.318L406.368 219.88L408.928 218.88L408.558 218.08H381.178ZM964.808 218.08L965.438 218.68L966.868 221.68L968.628 223.47L971.278 226.13V221.62L974.458 223.21L975.888 226.76L977.118 222.68L976.888 218.04L964.808 218.08ZM988.188 218.08L988.458 218.31L990.578 224.85L992.338 229.26L993.928 234.76L995.358 240.6L998.708 245.01L1000.83 251.54L1001.73 257.21L1003.48 262.52L1002.16 263.85L1000.56 265.44L1002.26 268.36L1001 271.01L999.498 272.5V274.03L1002.79 274.72L1005.79 278.97L1006.32 283.05L1008.81 285.5V289.22L1012.36 292.93L1017.47 298.07L1019.79 302.32L1024.56 305.5L1029.5 308.15L1037.1 310.44L1040.65 311.2L1043.83 313.33L1045.83 315.98L1052.53 319.5L1058.36 321.98L1064.57 324.8L1067.75 327.99H1071.3L1073.85 330.57L1077.14 332.2H1082.24L1084.24 334.85V331.34L1083.34 326.56L1081.59 319.13L1080.89 313.46L1077.51 310.28L1072.93 305.7L1069.93 304.44L1068.18 298.07L1069.57 294.89V291.7L1073.48 291.17V289.05L1068.34 287.82L1066.85 286.3L1063.73 285.17L1060.22 279.67L1058.96 272.6L1060.75 268.72L1063.75 266.72L1065.87 265.29L1064.65 262.1L1061.1 259.29L1055.1 259.98L1052.54 257.43L1049.26 256.63L1045.54 250.43L1044.48 246.19L1048.03 245.12L1049.42 241.77L1045.97 238.33H1043.06L1041.26 240.15L1036.69 239.15L1032.11 235.97L1031.22 231.89L1026.61 227.31L1025.38 229.97L1023.69 231.62V233.15L1025.01 236.15H1020.07L1017.15 233.24L1012.28 230.68L1011.75 226.8L1011.05 221.8L1007.7 218.45L1007.3 218.05L988.188 218.08ZM1015.82 218.08L1016.55 219.01L1016.68 221.76L1019.14 222.69L1018.54 219.94L1017.61 218.08H1015.82ZM1086.1 218.08L1084.34 219.27L1085.4 220.37L1086.86 218.94L1087.72 218.08H1086.1ZM502.698 224.45L501.838 225.31L502.958 226.31L504.818 225.77L502.698 224.45ZM1079 225.74L1076.08 226.97L1073.33 225.91L1071.17 226.67L1072.23 228.96H1079.6L1081.88 226.67L1079 225.74ZM499.278 233.83L497.528 235.26L498.528 237.18L500.118 236.88L499.318 233.83H499.278ZM631.868 234.93L630.118 235.26L627.118 238.26V240.26H629.598L630.398 242.19L632.488 241.19L634.878 238.81V234.93H631.868ZM513.078 248.26L511.158 249.26C511.158 249.26 511.798 251.1 511.948 251.35C511.948 251.03 513.368 250.72 513.368 250.72L513.038 248.3L513.078 248.26ZM443.428 254.69L441.678 255.32L441.008 255.16L439.258 256.45L439.888 257.91L438.618 259.67L438.918 260.79L441.838 261.59L444.558 260.3L446.148 260.46V258.87L443.598 258.21L444.858 256.78L443.428 254.69ZM498.648 254.86L498.318 256.62H500.998L502.458 258.04L502.628 255.66L500.998 255.32L498.608 254.86H498.648ZM465.588 259.17L464.128 260.46L465.128 261.92L466.998 260.62L469.428 261.25L468.798 259.82L465.578 259.16L465.588 259.17ZM458.188 265.6L457.398 267.69L458.688 268.82L460.118 267.03L458.188 265.62V265.6ZM314.518 266.6L311.008 267.6L308.918 270.32L307.328 272.41L308.418 275.41L311.008 276.41L313.398 277.41L315.648 275.82L318.368 276.28L319.828 272.93L317.568 270.05L317.408 267.63L314.518 266.63V266.6ZM210.518 268.85L209.888 269.85L211.018 271.28L212.438 269.85L210.518 268.85ZM480.998 271.04L479.568 271.54L478.438 272.97L479.068 274.89L480.198 276.32L481.828 274.56L482.458 272.5L480.998 271.04ZM12.5283 274.92L11.5983 276.62L9.27828 277.28L6.48828 276.65L11.6983 288.52L20.6983 299.14L26.5683 296.14L27.7483 293.62L27.2183 290.2L25.8283 289.2L24.4283 286.91L24.7683 284.26V281.26L22.3383 279.26L21.5783 278.53L20.4183 279.69L21.7783 281.08L21.2183 283.08L18.6983 282.62L18.3283 280.5L16.7083 280.04L16.6083 277.32L14.6083 275.32L12.5183 274.98L12.5283 274.92ZM473.278 276.52L471.358 277.01L469.598 278.77L467.678 280.36L469.438 281.62L470.888 280.36H473.118L475.208 278.44L473.278 276.52ZM371.368 280.52L368.778 281.81L366.858 282.44L367.348 286.62L367.648 288.88L369.448 289.34L370.078 292.72L373.458 293.05L374.588 290.3L372.998 287.62L373.168 284.57L371.408 280.57L371.368 280.52ZM1083.87 338.69L1082.98 341.44L1081.52 342.9L1083.18 344.56L1084.18 346.65L1083.88 349.4L1083.75 352.91L1085.34 354.51L1087.1 353.51V349.83L1088.72 348.24L1087.4 345.09L1085.27 342.96L1085.41 340.21L1083.88 338.69H1083.87ZM1090.47 362.53V364.86L1092 365.62L1093.06 364.23L1090.47 362.53ZM1104.4 407.24L1102.84 407.41V413.51H1105L1104.4 410.92V407.24ZM921.198 416.89L918.278 417.49L916.758 419.18V423.62L919.378 422.53L920.738 423.92L922.258 422.39L922.888 419.39L921.198 416.94V416.89ZM925.648 428.76L923.718 430.89V431.15H926.438L925.648 430.55V428.76ZM916.648 428.96L914.458 431.15H919.298L918.438 430.72L916.648 428.96ZM1103.26 430.42L1102.53 431.15H1103.39L1103.26 430.42Z" stroke="#CDDEDA" stroke-width="2" stroke-miterlimit="10"/>
</g>
<defs>
<filter id="filter0_f_815_1157" x="0.0507812" y="0" width="1110.21" height="649.196" filterUnits="userSpaceOnUse" color-interpolation-filters="sRGB">
<feFlood flood-opacity="0" result="BackgroundImageFix"/>
<feBlend mode="normal" in="SourceGraphic" in2="BackgroundImageFix" result="shape"/>
<feGaussianBlur stdDeviation="2" result="effect1_foregroundBlur_815_1157"/>
</filter>
</defs>
</svg>
