<svg width="18" height="15" viewBox="0 0 18 15" fill="none" xmlns="http://www.w3.org/2000/svg">
<path fill-rule="evenodd" clip-rule="evenodd" d="M14.0013 0.333496H4.0013C2.16035 0.333496 0.667969 1.82588 0.667969 3.66683V11.1668C0.667969 13.0078 2.16035 14.5002 4.0013 14.5002H14.0013C15.8423 14.5002 17.3346 13.0078 17.3346 11.1668V3.66683C17.3346 1.82588 15.8423 0.333496 14.0013 0.333496ZM4.0013 1.6585H14.0013C14.8894 1.66019 15.67 2.24735 15.918 3.10016L9.63463 7.7585C9.46243 7.92687 9.22895 8.01762 8.98824 8.00976C8.74754 8.00189 8.52048 7.89608 8.35964 7.71683L2.1013 3.1085C2.34443 2.25827 3.11705 1.66863 4.0013 1.6585ZM1.99297 11.1668C1.99297 12.276 2.89213 13.1752 4.0013 13.1752H14.0013C15.1072 13.1706 16.0013 12.2728 16.0013 11.1668V4.47516L10.3346 8.64183C9.97248 8.97899 9.49611 9.16656 9.0013 9.16683C8.48692 9.15864 7.99392 8.95965 7.61797 8.6085L1.99297 4.44183V11.1668Z" fill="#FF730A"/>
</svg>
