<svg width="13" height="9" viewBox="0 0 13 9" fill="none" xmlns="http://www.w3.org/2000/svg">
<path fill-rule="evenodd" clip-rule="evenodd" d="M0.912276 0.883521L0.682902 1.04683L3.24355 3.07183L5.80407 5.09683L6.25938 5.40737L6.71468 5.71792L7.11004 5.47269L7.50539 5.22747L10.1344 3.13715L12.7635 1.04683L12.5381 0.883521L12.3127 0.720215H6.7272H1.14165L0.912276 0.883521ZM0.539062 4.96723V8.31057L0.725669 8.20618L0.912276 8.10167L2.78838 6.605L4.66449 5.10833V5.01008V4.91183L2.60177 3.2678L0.539062 1.62376V4.96723ZM10.8182 3.28596L8.78991 4.91523V5.02262V5.13014L10.8182 6.72179L12.8466 8.31357L12.8849 6.59951L12.9234 4.88544L12.8849 3.27106L12.8466 1.65655L10.8182 3.28596ZM3.12543 7.02489L1.10507 8.62425L1.09709 8.72223L1.08912 8.82022H6.7272H12.3653V8.74314V8.66618L12.0979 8.44918L11.8306 8.23231L10.0306 6.81377L8.23064 5.39522L7.59395 5.86659L6.95712 6.33796H6.71771H6.47816L5.90211 5.8807L5.32607 5.42344L5.23586 5.42449L5.14579 5.42553L3.12543 7.02489Z" fill="#171D3D"/>
</svg>
