<svg width="11" height="11" viewBox="0 0 11 11" fill="none" xmlns="http://www.w3.org/2000/svg">
<path fill-rule="evenodd" clip-rule="evenodd" d="M2.33724 0.133523C2.24468 0.149075 2.08853 0.186767 1.99021 0.217277C1.89188 0.247733 1.73202 0.309779 1.63499 0.355139C1.53791 0.400499 1.37702 0.491868 1.2774 0.55818L1.09627 0.678762L0.905549 0.863442L0.714776 1.04812L0.59637 1.21309C0.531271 1.30381 0.435373 1.45831 0.383359 1.55642L0.288753 1.73484L0.2152 1.95635L0.141594 2.17786L0.108856 2.38327L0.0761719 2.58869V5.5001V8.41151L0.108856 8.61692L0.141594 8.82234L0.2152 9.04385L0.288753 9.26536L0.383359 9.44377C0.435373 9.54189 0.531271 9.69638 0.59637 9.7871L0.714776 9.95207L0.905549 10.1368L1.09627 10.3214L1.27509 10.4397C1.37341 10.5048 1.51373 10.588 1.58696 10.6247C1.66019 10.6614 1.81634 10.7236 1.93404 10.763L2.14797 10.8345L2.3528 10.8673L2.55763 10.9001H5.46069H8.36375L8.56858 10.8673L8.7734 10.8345L8.99428 10.7607L9.21515 10.6869L9.39305 10.592C9.49089 10.5399 9.64494 10.4437 9.7354 10.3784L9.8999 10.2597L10.084 10.0683L10.2682 9.87707L10.3861 9.69773C10.451 9.59913 10.534 9.45841 10.5706 9.38496C10.6072 9.31153 10.6692 9.15493 10.7085 9.03688L10.7798 8.82234L10.8125 8.61692L10.8452 8.41151V5.5001V2.58869L10.8125 2.38327L10.7798 2.17786L10.7085 1.96331C10.6692 1.84527 10.6072 1.68867 10.5706 1.61523C10.534 1.54179 10.451 1.40107 10.3861 1.30246L10.2682 1.12313L10.084 0.93186L9.8999 0.740538L9.7354 0.621792C9.64494 0.556506 9.49089 0.460331 9.39305 0.408167L9.21515 0.31329L8.99428 0.239525L8.7734 0.165708L8.56858 0.132875L8.36375 0.100098L5.43463 0.10269L2.5055 0.105228L2.33724 0.133523ZM7.82754 2.96166C7.9535 3.15404 8.17055 3.28107 8.41718 3.28107C8.80648 3.28107 9.12206 2.96458 9.12206 2.57416C9.12206 2.18375 8.80648 1.86725 8.41718 1.86725C8.08843 1.86725 7.81225 2.09296 7.73429 2.39828L7.71222 2.45207L7.71174 2.57254L7.71125 2.69307L7.73889 2.76714C7.74942 2.80447 7.76294 2.84053 7.77916 2.87507L7.80187 2.93591L7.82754 2.96166ZM5.4606 3.2418C4.36356 3.2418 3.44976 4.02857 3.24963 5.07017L3.24399 5.08878V5.10063C3.22093 5.23025 3.20889 5.36371 3.20889 5.49998C3.20889 5.63625 3.22093 5.7697 3.24399 5.89932V5.91142L3.24975 5.93044C3.42321 6.83174 4.13105 7.54212 5.0295 7.71682L5.05055 7.72317H5.06358C5.19246 7.74616 5.32513 7.75816 5.4606 7.75816C5.59606 7.75816 5.72874 7.74616 5.85762 7.72317H5.87083L5.89221 7.71672C6.78987 7.54195 7.49715 6.83244 7.67112 5.9321L7.67738 5.91142V5.8983C7.70033 5.769 7.7123 5.63589 7.7123 5.49998C7.7123 5.36406 7.70033 5.23096 7.67738 5.10166V5.08878L7.67125 5.06852C7.47047 4.02774 6.55705 3.2418 5.4606 3.2418Z" fill="#171D3D"/>
</svg>
