<svg width="12" height="12" viewBox="0 0 12 12" fill="none" xmlns="http://www.w3.org/2000/svg">
<path d="M5.76963 0.23291C2.64325 0.23291 0.099646 2.6554 0.099646 5.63291C0.099646 6.56265 0.351837 7.47689 0.830088 8.28361L0.108767 10.7347C0.0851012 10.8153 0.108028 10.9017 0.169165 10.9615C0.21625 11.0078 0.280346 11.0329 0.346167 11.0329C0.365889 11.0329 0.385857 11.0306 0.405332 11.0261L3.09142 10.3924C3.9116 10.8117 4.83531 11.0329 5.76963 11.0329C8.89601 11.0329 11.4396 8.61042 11.4396 5.63291C11.4396 2.6554 8.89601 0.23291 5.76963 0.23291ZM8.62187 7.53841C8.50059 7.85818 7.9188 8.15001 7.63924 8.18922C7.38828 8.22421 7.07077 8.23923 6.72219 8.13499C6.51092 8.0716 6.23974 7.98755 5.8924 7.84644C4.43225 7.25338 3.47871 5.87075 3.40574 5.77941C3.33301 5.68808 2.81138 5.03727 2.81138 4.36368C2.81138 3.69008 3.18732 3.35881 3.32094 3.22169C3.45455 3.08458 3.61208 3.0503 3.70921 3.0503C3.80634 3.0503 3.90322 3.05148 3.98827 3.05523C4.07775 3.05946 4.19781 3.02307 4.31589 3.29025C4.43718 3.56448 4.72832 4.23807 4.76432 4.30686C4.8008 4.37541 4.82496 4.45548 4.77664 4.54681C4.72832 4.63814 4.70416 4.69519 4.63119 4.77525C4.55822 4.85531 4.47835 4.95368 4.41278 5.0152C4.33981 5.08352 4.26412 5.15748 4.34893 5.29459C4.43373 5.4317 4.72586 5.8799 5.15875 6.24288C5.71465 6.70915 6.18378 6.85378 6.32923 6.92234C6.47468 6.99089 6.55973 6.97939 6.64453 6.88806C6.72933 6.79649 7.0084 6.48822 7.10528 6.35134C7.20216 6.21447 7.29929 6.23701 7.4329 6.28279C7.56652 6.32834 8.28217 6.65938 8.42762 6.72794C8.57306 6.79649 8.67019 6.83077 8.70668 6.88782C8.74316 6.94464 8.74316 7.21887 8.62187 7.53841Z" fill="#171D3D"/>
</svg>
