<svg width="14" height="11" viewBox="0 0 14 11" fill="none" xmlns="http://www.w3.org/2000/svg">
<path fill-rule="evenodd" clip-rule="evenodd" d="M12.4499 0.74439C12.3111 0.792612 9.66716 1.75214 6.57457 2.87653C3.48192 4.00102 0.903652 4.94429 0.845069 4.97281C0.786485 5.00132 0.676157 5.08 0.59975 5.14755L0.460938 5.27045V5.38358V5.49661L0.59205 5.61195L0.72311 5.72729L0.882276 5.7746C0.969828 5.80068 1.67283 6.00804 2.44454 6.23543L3.84764 6.64886L4.00944 6.55787C4.09839 6.50781 5.62501 5.60412 7.4019 4.54961C9.17879 3.49504 10.6823 2.60744 10.7429 2.57693C10.8036 2.54653 10.9114 2.52164 10.9827 2.52164H11.1122V2.58185V2.64206L8.31054 5.02897L5.50892 7.41582V7.52792C5.50892 7.58954 5.46331 8.22733 5.40764 8.94532C5.35196 9.6633 5.31637 10.2601 5.32854 10.2717C5.34076 10.2832 5.43381 10.2666 5.53536 10.2348L5.71999 10.177L6.38541 9.57134C6.7514 9.23816 7.1205 8.90557 7.20569 8.83219L7.3606 8.69875L8.81921 9.71428L10.2779 10.7297L10.4983 10.8223L10.7187 10.9148L10.8871 10.8848L11.0556 10.8548L11.1805 10.7139C11.2492 10.6364 11.3291 10.5025 11.3581 10.4161C11.3871 10.3298 11.8547 8.28106 12.3973 5.86327L13.3838 1.46745V1.27348V1.07957L13.3072 0.939007L13.2306 0.798445L13.0826 0.72576C13.0011 0.6858 12.8822 0.653886 12.8184 0.654804C12.7545 0.655776 12.5887 0.69606 12.4499 0.74439Z" fill="#171D3D"/>
</svg>
